{"asset": {"version": "2.0", "generator": "AI Script"}, "scene": 0, "scenes": [{"nodes": [0]}], "nodes": [{"mesh": 0, "name": "atlas_cartography"}], "meshes": [{"name": "atlas_cartography", "primitives": [{"attributes": {"POSITION": 0, "NORMAL": 1, "TEXCOORD_0": 2}, "indices": 3, "material": 0}]}], "materials": [{"name": "atlas_cartographyMaterial", "doubleSided": true, "pbrMetallicRoughness": {"baseColorFactor": [0.95, 0.8, 0.55, 1.0], "metallicFactor": 0.0, "roughnessFactor": 1.0}}], "buffers": [{"byteLength": 4232, "uri": "data:application/octet-stream;base64,"}], "bufferViews": [{"buffer": 0, "byteOffset": 0, "byteLength": 1416, "target": 34962}, {"buffer": 0, "byteOffset": 1416, "byteLength": 1416, "target": 34962}, {"buffer": 0, "byteOffset": 2832, "byteLength": 944, "target": 34962}, {"buffer": 0, "byteOffset": 3776, "byteLength": 456, "target": 34963}], "accessors": [{"bufferView": 0, "componentType": 5126, "count": 118, "type": "VEC3", "min": [-0.5, -0.05, -0.5], "max": [0.5, 0.30000000000000004, 0.5]}, {"bufferView": 1, "componentType": 5126, "count": 118, "type": "VEC3", "min": [-1.0, -1.0, -1.0], "max": [1.0, 1.0, 1.0]}, {"bufferView": 2, "componentType": 5126, "count": 118, "type": "VEC2", "min": [0.0, 0.0], "max": [1.0, 1.0]}, {"bufferView": 3, "componentType": 5123, "count": 228, "type": "SCALAR", "min": [0], "max": [117]}]}