{"asset": {"version": "2.0", "generator": "AI Script"}, "scene": 0, "scenes": [{"nodes": [0]}], "nodes": [{"mesh": 0, "name": "aurora_shader"}], "meshes": [{"name": "aurora_shader", "primitives": [{"attributes": {"POSITION": 0, "NORMAL": 1, "TEXCOORD_0": 2}, "indices": 3, "material": 0}]}], "materials": [{"name": "aurora_shaderMaterial", "doubleSided": true, "pbrMetallicRoughness": {"baseColorFactor": [0.7, 0.9, 1.0, 1.0], "metallicFactor": 0.0, "roughnessFactor": 1.0}}], "buffers": [{"byteLength": 7680, "uri": "data:application/octet-stream;base64,"}], "bufferViews": [{"buffer": 0, "byteOffset": 0, "byteLength": 2448, "target": 34962}, {"buffer": 0, "byteOffset": 2448, "byteLength": 2448, "target": 34962}, {"buffer": 0, "byteOffset": 4896, "byteLength": 1632, "target": 34962}, {"buffer": 0, "byteOffset": 6528, "byteLength": 1152, "target": 34963}], "accessors": [{"bufferView": 0, "componentType": 5126, "count": 204, "type": "VEC3", "min": [-0.45, -0.25, -0.45], "max": [0.45, 0.35, 0.45]}, {"bufferView": 1, "componentType": 5126, "count": 204, "type": "VEC3", "min": [-1.0, -1.0, -1.0], "max": [1.0, 1.0, 1.0]}, {"bufferView": 2, "componentType": 5126, "count": 204, "type": "VEC2", "min": [0.0, 0.0], "max": [1.0, 1.0]}, {"bufferView": 3, "componentType": 5123, "count": 576, "type": "SCALAR", "min": [0], "max": [203]}]}