{"asset": {"version": "2.0", "generator": "AI Script"}, "scene": 0, "scenes": [{"nodes": [0]}], "nodes": [{"mesh": 0, "name": "deep_research"}], "meshes": [{"name": "deep_research", "primitives": [{"attributes": {"POSITION": 0, "NORMAL": 1, "TEXCOORD_0": 2}, "indices": 3, "material": 0}]}], "materials": [{"name": "deep_researchMaterial", "doubleSided": true, "pbrMetallicRoughness": {"baseColorFactor": [0.8, 0.85, 0.95, 1.0], "metallicFactor": 0.0, "roughnessFactor": 1.0}}], "buffers": [{"byteLength": 6928, "uri": "data:application/octet-stream;base64,"}], "bufferViews": [{"buffer": 0, "byteOffset": 0, "byteLength": 2256, "target": 34962}, {"buffer": 0, "byteOffset": 2256, "byteLength": 2256, "target": 34962}, {"buffer": 0, "byteOffset": 4512, "byteLength": 1504, "target": 34962}, {"buffer": 0, "byteOffset": 6016, "byteLength": 912, "target": 34963}], "accessors": [{"bufferView": 0, "componentType": 5126, "count": 188, "type": "VEC3", "min": [-0.42, -0.2, -0.42], "max": [0.42, 0.4, 0.42]}, {"bufferView": 1, "componentType": 5126, "count": 188, "type": "VEC3", "min": [-1.0, -1.0, -1.0], "max": [1.0, 1.0, 1.0]}, {"bufferView": 2, "componentType": 5126, "count": 188, "type": "VEC2", "min": [0.0, 0.0], "max": [1.0, 1.0]}, {"bufferView": 3, "componentType": 5123, "count": 456, "type": "SCALAR", "min": [0], "max": [187]}]}