{"asset": {"version": "2.0", "generator": "AI Script"}, "scene": 0, "scenes": [{"nodes": [0]}], "nodes": [{"mesh": 0, "name": "drone_mapper"}], "meshes": [{"name": "drone_mapper", "primitives": [{"attributes": {"POSITION": 0, "NORMAL": 1, "TEXCOORD_0": 2}, "indices": 3, "material": 0}]}], "materials": [{"name": "drone_mapperMaterial", "doubleSided": true, "pbrMetallicRoughness": {"baseColorFactor": [0.6, 0.8, 0.95, 1.0], "metallicFactor": 0.0, "roughnessFactor": 1.0}}], "buffers": [{"byteLength": 8528, "uri": "data:application/octet-stream;base64,"}], "bufferViews": [{"buffer": 0, "byteOffset": 0, "byteLength": 2784, "target": 34962}, {"buffer": 0, "byteOffset": 2784, "byteLength": 2784, "target": 34962}, {"buffer": 0, "byteOffset": 5568, "byteLength": 1856, "target": 34962}, {"buffer": 0, "byteOffset": 7424, "byteLength": 1104, "target": 34963}], "accessors": [{"bufferView": 0, "componentType": 5126, "count": 232, "type": "VEC3", "min": [-0.5, -0.05, -0.49265847744427305], "max": [0.5, 0.325, 0.49265847744427305]}, {"bufferView": 1, "componentType": 5126, "count": 232, "type": "VEC3", "min": [-1.0, -1.0, -1.0], "max": [1.0, 1.0, 1.0]}, {"bufferView": 2, "componentType": 5126, "count": 232, "type": "VEC2", "min": [0.0, 0.0], "max": [1.0, 1.0]}, {"bufferView": 3, "componentType": 5123, "count": 552, "type": "SCALAR", "min": [0], "max": [231]}]}