{"asset": {"version": "2.0", "generator": "AI Script"}, "scene": 0, "scenes": [{"nodes": [0]}], "nodes": [{"mesh": 0, "name": "holo_ui"}], "meshes": [{"name": "holo_ui", "primitives": [{"attributes": {"POSITION": 0, "NORMAL": 1, "TEXCOORD_0": 2}, "indices": 3, "material": 0}]}], "materials": [{"name": "holo_uiMaterial", "doubleSided": true, "pbrMetallicRoughness": {"baseColorFactor": [0.85, 0.65, 1.0, 1.0], "metallicFactor": 0.0, "roughnessFactor": 1.0}}], "buffers": [{"byteLength": 9792, "uri": "data:application/octet-stream;base64,"}], "bufferViews": [{"buffer": 0, "byteOffset": 0, "byteLength": 3240, "target": 34962}, {"buffer": 0, "byteOffset": 3240, "byteLength": 3240, "target": 34962}, {"buffer": 0, "byteOffset": 6480, "byteLength": 2160, "target": 34962}, {"buffer": 0, "byteOffset": 8640, "byteLength": 1152, "target": 34963}], "accessors": [{"bufferView": 0, "componentType": 5126, "count": 270, "type": "VEC3", "min": [-0.5, -0.3, -0.12990381056766578], "max": [0.5, 0.3, 0.1299038105676658]}, {"bufferView": 1, "componentType": 5126, "count": 270, "type": "VEC3", "min": [-1.0, -1.0, -1.0], "max": [1.0, 1.0, 1.0]}, {"bufferView": 2, "componentType": 5126, "count": 270, "type": "VEC2", "min": [0.0, 0.0], "max": [1.0, 1.0]}, {"bufferView": 3, "componentType": 5123, "count": 576, "type": "SCALAR", "min": [0], "max": [269]}]}