{"asset": {"version": "2.0", "generator": "AI Script"}, "scene": 0, "scenes": [{"nodes": [0]}], "nodes": [{"mesh": 0, "name": "lidar_vision"}], "meshes": [{"name": "lidar_vision", "primitives": [{"attributes": {"POSITION": 0, "NORMAL": 1, "TEXCOORD_0": 2}, "indices": 3, "material": 0}]}], "materials": [{"name": "lidar_visionMaterial", "doubleSided": true, "pbrMetallicRoughness": {"baseColorFactor": [0.65, 0.85, 0.75, 1.0], "metallicFactor": 0.0, "roughnessFactor": 1.0}}], "buffers": [{"byteLength": 7304, "uri": "data:application/octet-stream;base64,"}], "bufferViews": [{"buffer": 0, "byteOffset": 0, "byteLength": 2352, "target": 34962}, {"buffer": 0, "byteOffset": 2352, "byteLength": 2352, "target": 34962}, {"buffer": 0, "byteOffset": 4704, "byteLength": 1568, "target": 34962}, {"buffer": 0, "byteOffset": 6272, "byteLength": 1032, "target": 34963}], "accessors": [{"bufferView": 0, "componentType": 5126, "count": 196, "type": "VEC3", "min": [-0.45, -0.05, -0.45], "max": [0.45, 0.7, 0.45]}, {"bufferView": 1, "componentType": 5126, "count": 196, "type": "VEC3", "min": [-1.0, -1.0, -1.0], "max": [1.0, 1.0, 1.0]}, {"bufferView": 2, "componentType": 5126, "count": 196, "type": "VEC2", "min": [0.0, 0.0], "max": [1.0, 1.0]}, {"bufferView": 3, "componentType": 5123, "count": 516, "type": "SCALAR", "min": [0], "max": [195]}]}