{"asset": {"version": "2.0", "generator": "AI Script"}, "scene": 0, "scenes": [{"nodes": [0]}], "nodes": [{"mesh": 0, "name": "nebula_synth"}], "meshes": [{"name": "nebula_synth", "primitives": [{"attributes": {"POSITION": 0, "NORMAL": 1, "TEXCOORD_0": 2}, "indices": 3, "material": 0}]}], "materials": [{"name": "nebula_synthMaterial", "doubleSided": true, "pbrMetallicRoughness": {"baseColorFactor": [0.7, 0.5, 0.9, 1.0], "metallicFactor": 0.0, "roughnessFactor": 1.0}}], "buffers": [{"byteLength": 6088, "uri": "data:application/octet-stream;base64,"}], "bufferViews": [{"buffer": 0, "byteOffset": 0, "byteLength": 1968, "target": 34962}, {"buffer": 0, "byteOffset": 1968, "byteLength": 1968, "target": 34962}, {"buffer": 0, "byteOffset": 3936, "byteLength": 1312, "target": 34962}, {"buffer": 0, "byteOffset": 5248, "byteLength": 840, "target": 34963}], "accessors": [{"bufferView": 0, "componentType": 5126, "count": 164, "type": "VEC3", "min": [-0.4, -0.075, -0.4], "max": [0.4, 0.7, 0.4]}, {"bufferView": 1, "componentType": 5126, "count": 164, "type": "VEC3", "min": [-1.0, -1.0, -1.0], "max": [1.0, 1.0, 1.0]}, {"bufferView": 2, "componentType": 5126, "count": 164, "type": "VEC2", "min": [0.0, 0.0], "max": [1.0, 1.0]}, {"bufferView": 3, "componentType": 5123, "count": 420, "type": "SCALAR", "min": [0], "max": [163]}]}