{"asset": {"version": "2.0", "generator": "AI Script"}, "scene": 0, "scenes": [{"nodes": [0]}], "nodes": [{"mesh": 0, "name": "ocr_sudoku"}], "meshes": [{"name": "ocr_sudoku", "primitives": [{"attributes": {"POSITION": 0, "NORMAL": 1, "TEXCOORD_0": 2}, "indices": 3, "material": 0}]}], "materials": [{"name": "ocr_sudokuMaterial", "doubleSided": true, "pbrMetallicRoughness": {"baseColorFactor": [0.65, 0.7, 1.0, 1.0], "metallicFactor": 0.0, "roughnessFactor": 1.0}}], "buffers": [{"byteLength": 8400, "uri": "data:application/octet-stream;base64,"}], "bufferViews": [{"buffer": 0, "byteOffset": 0, "byteLength": 2880, "target": 34962}, {"buffer": 0, "byteOffset": 2880, "byteLength": 2880, "target": 34962}, {"buffer": 0, "byteOffset": 5760, "byteLength": 1920, "target": 34962}, {"buffer": 0, "byteOffset": 7680, "byteLength": 720, "target": 34963}], "accessors": [{"bufferView": 0, "componentType": 5126, "count": 240, "type": "VEC3", "min": [-0.7, -0.025, -0.7], "max": [0.7, 0.07, 0.7]}, {"bufferView": 1, "componentType": 5126, "count": 240, "type": "VEC3", "min": [-1.0, -1.0, -1.0], "max": [1.0, 1.0, 1.0]}, {"bufferView": 2, "componentType": 5126, "count": 240, "type": "VEC2", "min": [0.0, 0.0], "max": [1.0, 1.0]}, {"bufferView": 3, "componentType": 5123, "count": 360, "type": "SCALAR", "min": [0], "max": [239]}]}