{"asset": {"version": "2.0", "generator": "AI Script"}, "scene": 0, "scenes": [{"nodes": [0]}], "nodes": [{"mesh": 0, "name": "orbital_archive"}], "meshes": [{"name": "orbital_archive", "primitives": [{"attributes": {"POSITION": 0, "NORMAL": 1, "TEXCOORD_0": 2}, "indices": 3, "material": 0}]}], "materials": [{"name": "orbital_archiveMaterial", "doubleSided": true, "pbrMetallicRoughness": {"baseColorFactor": [0.9, 0.7, 0.9, 1.0], "metallicFactor": 0.0, "roughnessFactor": 1.0}}], "buffers": [{"byteLength": 4536, "uri": "data:application/octet-stream;base64,"}], "bufferViews": [{"buffer": 0, "byteOffset": 0, "byteLength": 1512, "target": 34962}, {"buffer": 0, "byteOffset": 1512, "byteLength": 1512, "target": 34962}, {"buffer": 0, "byteOffset": 3024, "byteLength": 1008, "target": 34962}, {"buffer": 0, "byteOffset": 4032, "byteLength": 504, "target": 34963}], "accessors": [{"bufferView": 0, "componentType": 5126, "count": 126, "type": "VEC3", "min": [-0.35, -0.4, -0.175], "max": [0.35, 0.42500000000000004, 0.375]}, {"bufferView": 1, "componentType": 5126, "count": 126, "type": "VEC3", "min": [-1.0, -1.0, -1.0], "max": [1.0, 1.0, 1.0]}, {"bufferView": 2, "componentType": 5126, "count": 126, "type": "VEC2", "min": [0.0, 0.0], "max": [1.0, 1.0]}, {"bufferView": 3, "componentType": 5123, "count": 252, "type": "SCALAR", "min": [0], "max": [125]}]}