{"asset": {"version": "2.0", "generator": "AI Script"}, "scene": 0, "scenes": [{"nodes": [0]}], "nodes": [{"mesh": 0, "name": "quantum_chess"}], "meshes": [{"name": "quantum_chess", "primitives": [{"attributes": {"POSITION": 0, "NORMAL": 1, "TEXCOORD_0": 2}, "indices": 3, "material": 0}]}], "materials": [{"name": "quantum_chessMaterial", "doubleSided": true, "pbrMetallicRoughness": {"baseColorFactor": [0.6, 0.7, 1.0, 1.0], "metallicFactor": 0.0, "roughnessFactor": 1.0}}], "buffers": [{"byteLength": 6216, "uri": "data:application/octet-stream;base64,"}], "bufferViews": [{"buffer": 0, "byteOffset": 0, "byteLength": 2088, "target": 34962}, {"buffer": 0, "byteOffset": 2088, "byteLength": 2088, "target": 34962}, {"buffer": 0, "byteOffset": 4176, "byteLength": 1392, "target": 34962}, {"buffer": 0, "byteOffset": 5568, "byteLength": 648, "target": 34963}], "accessors": [{"bufferView": 0, "componentType": 5126, "count": 174, "type": "VEC3", "min": [-0.4, -0.025, -0.4], "max": [0.4, 0.375, 0.4]}, {"bufferView": 1, "componentType": 5126, "count": 174, "type": "VEC3", "min": [-1.0, -1.0, -1.0], "max": [1.0, 1.0, 1.0]}, {"bufferView": 2, "componentType": 5126, "count": 174, "type": "VEC2", "min": [0.0, 0.0], "max": [1.0, 1.0]}, {"bufferView": 3, "componentType": 5123, "count": 324, "type": "SCALAR", "min": [0], "max": [173]}]}