{"asset": {"version": "2.0", "generator": "AI Script"}, "scene": 0, "scenes": [{"nodes": [0]}], "nodes": [{"mesh": 0, "name": "retro_game_unity"}], "meshes": [{"name": "retro_game_unity", "primitives": [{"attributes": {"POSITION": 0, "NORMAL": 1, "TEXCOORD_0": 2}, "indices": 3, "material": 0}]}], "materials": [{"name": "retro_game_unityMaterial", "doubleSided": true, "pbrMetallicRoughness": {"baseColorFactor": [0.8, 0.9, 0.7, 1.0], "metallicFactor": 0.0, "roughnessFactor": 1.0}}], "buffers": [{"byteLength": 12648, "uri": "data:application/octet-stream;base64,"}], "bufferViews": [{"buffer": 0, "byteOffset": 0, "byteLength": 4176, "target": 34962}, {"buffer": 0, "byteOffset": 4176, "byteLength": 4176, "target": 34962}, {"buffer": 0, "byteOffset": 8352, "byteLength": 2784, "target": 34962}, {"buffer": 0, "byteOffset": 11136, "byteLength": 1512, "target": 34963}], "accessors": [{"bufferView": 0, "componentType": 5126, "count": 348, "type": "VEC3", "min": [-0.4, -0.55, -0.10392304845413262], "max": [0.4, 0.55, 0.25]}, {"bufferView": 1, "componentType": 5126, "count": 348, "type": "VEC3", "min": [-1.0, -1.0, -1.0], "max": [1.0, 1.0, 1.0]}, {"bufferView": 2, "componentType": 5126, "count": 348, "type": "VEC2", "min": [0.0, 0.0], "max": [1.0, 1.0]}, {"bufferView": 3, "componentType": 5123, "count": 756, "type": "SCALAR", "min": [0], "max": [347]}]}