{"asset": {"version": "2.0", "generator": "AI Script"}, "scene": 0, "scenes": [{"nodes": [0]}], "nodes": [{"mesh": 0, "name": "semestre_bolivie"}], "meshes": [{"name": "semestre_bolivie", "primitives": [{"attributes": {"POSITION": 0, "NORMAL": 1, "TEXCOORD_0": 2}, "indices": 3, "material": 0}]}], "materials": [{"name": "semestre_bolivieMaterial", "doubleSided": true, "pbrMetallicRoughness": {"baseColorFactor": [0.9, 0.75, 0.6, 1.0], "metallicFactor": 0.0, "roughnessFactor": 1.0}}], "buffers": [{"byteLength": 5040, "uri": "data:application/octet-stream;base64,"}], "bufferViews": [{"buffer": 0, "byteOffset": 0, "byteLength": 1728, "target": 34962}, {"buffer": 0, "byteOffset": 1728, "byteLength": 1728, "target": 34962}, {"buffer": 0, "byteOffset": 3456, "byteLength": 1152, "target": 34962}, {"buffer": 0, "byteOffset": 4608, "byteLength": 432, "target": 34963}], "accessors": [{"bufferView": 0, "componentType": 5126, "count": 144, "type": "VEC3", "min": [-0.375, 0.0, -0.15], "max": [0.30000000000000004, 1.075, 0.15]}, {"bufferView": 1, "componentType": 5126, "count": 144, "type": "VEC3", "min": [-1.0, -1.0, -1.0], "max": [1.0, 1.0, 1.0]}, {"bufferView": 2, "componentType": 5126, "count": 144, "type": "VEC2", "min": [0.0, 0.0], "max": [1.0, 1.0]}, {"bufferView": 3, "componentType": 5123, "count": 216, "type": "SCALAR", "min": [0], "max": [143]}]}