{"asset": {"version": "2.0", "generator": "AI Script"}, "scene": 0, "scenes": [{"nodes": [0]}], "nodes": [{"mesh": 0, "name": "shell_posix"}], "meshes": [{"name": "shell_posix", "primitives": [{"attributes": {"POSITION": 0, "NORMAL": 1, "TEXCOORD_0": 2}, "indices": 3, "material": 0}]}], "materials": [{"name": "shell_posixMaterial", "doubleSided": true, "pbrMetallicRoughness": {"baseColorFactor": [0.6, 0.9, 1.0, 1.0], "metallicFactor": 0.0, "roughnessFactor": 1.0}}], "buffers": [{"byteLength": 4200, "uri": "data:application/octet-stream;base64,"}], "bufferViews": [{"buffer": 0, "byteOffset": 0, "byteLength": 1440, "target": 34962}, {"buffer": 0, "byteOffset": 1440, "byteLength": 1440, "target": 34962}, {"buffer": 0, "byteOffset": 2880, "byteLength": 960, "target": 34962}, {"buffer": 0, "byteOffset": 3840, "byteLength": 360, "target": 34963}], "accessors": [{"bufferView": 0, "componentType": 5126, "count": 120, "type": "VEC3", "min": [-0.45, -0.3, -0.3], "max": [0.45, 0.34, 0.31]}, {"bufferView": 1, "componentType": 5126, "count": 120, "type": "VEC3", "min": [-1.0, -1.0, -1.0], "max": [1.0, 1.0, 1.0]}, {"bufferView": 2, "componentType": 5126, "count": 120, "type": "VEC2", "min": [0.0, 0.0], "max": [1.0, 1.0]}, {"bufferView": 3, "componentType": 5123, "count": 180, "type": "SCALAR", "min": [0], "max": [119]}]}