{"asset": {"version": "2.0", "generator": "AI Script"}, "scene": 0, "scenes": [{"nodes": [0]}], "nodes": [{"mesh": 0, "name": "stage_minarm"}], "meshes": [{"name": "stage_minarm", "primitives": [{"attributes": {"POSITION": 0, "NORMAL": 1, "TEXCOORD_0": 2}, "indices": 3, "material": 0}]}], "materials": [{"name": "stage_minarmMaterial", "doubleSided": true, "pbrMetallicRoughness": {"baseColorFactor": [0.65, 0.75, 0.85, 1.0], "metallicFactor": 0.0, "roughnessFactor": 1.0}}], "buffers": [{"byteLength": 7624, "uri": "data:application/octet-stream;base64,"}], "bufferViews": [{"buffer": 0, "byteOffset": 0, "byteLength": 2544, "target": 34962}, {"buffer": 0, "byteOffset": 2544, "byteLength": 2544, "target": 34962}, {"buffer": 0, "byteOffset": 5088, "byteLength": 1696, "target": 34962}, {"buffer": 0, "byteOffset": 6784, "byteLength": 840, "target": 34963}], "accessors": [{"bufferView": 0, "componentType": 5126, "count": 212, "type": "VEC3", "min": [-0.5, -0.22999999999999998, -0.45], "max": [0.5, 0.55, 0.39265847744427307]}, {"bufferView": 1, "componentType": 5126, "count": 212, "type": "VEC3", "min": [-1.0, -1.0, -1.0], "max": [1.0, 1.0, 1.0]}, {"bufferView": 2, "componentType": 5126, "count": 212, "type": "VEC2", "min": [0.0, 0.0], "max": [1.0, 1.0]}, {"bufferView": 3, "componentType": 5123, "count": 420, "type": "SCALAR", "min": [0], "max": [211]}]}