{"asset": {"version": "2.0", "generator": "AI Script"}, "scene": 0, "scenes": [{"nodes": [0]}], "nodes": [{"mesh": 0, "name": "stellar_mapping"}], "meshes": [{"name": "stellar_mapping", "primitives": [{"attributes": {"POSITION": 0, "NORMAL": 1, "TEXCOORD_0": 2}, "indices": 3, "material": 0}]}], "materials": [{"name": "stellar_mappingMaterial", "doubleSided": true, "pbrMetallicRoughness": {"baseColorFactor": [0.8, 0.6, 0.95, 1.0], "metallicFactor": 0.0, "roughnessFactor": 1.0}}], "buffers": [{"byteLength": 7776, "uri": "data:application/octet-stream;base64,"}], "bufferViews": [{"buffer": 0, "byteOffset": 0, "byteLength": 2592, "target": 34962}, {"buffer": 0, "byteOffset": 2592, "byteLength": 2592, "target": 34962}, {"buffer": 0, "byteOffset": 5184, "byteLength": 1728, "target": 34962}, {"buffer": 0, "byteOffset": 6912, "byteLength": 864, "target": 34963}], "accessors": [{"bufferView": 0, "componentType": 5126, "count": 216, "type": "VEC3", "min": [-0.45, -0.45, -0.08660254037844387], "max": [0.45, 0.45, 0.08660254037844388]}, {"bufferView": 1, "componentType": 5126, "count": 216, "type": "VEC3", "min": [-1.0, -1.0, -1.0], "max": [1.0, 1.0, 1.0]}, {"bufferView": 2, "componentType": 5126, "count": 216, "type": "VEC2", "min": [0.0, 0.0], "max": [1.0, 1.0]}, {"bufferView": 3, "componentType": 5123, "count": 432, "type": "SCALAR", "min": [0], "max": [215]}]}