{"asset": {"version": "2.0", "generator": "AI Script"}, "scene": 0, "scenes": [{"nodes": [0]}], "nodes": [{"mesh": 0, "name": "terra_robotics"}], "meshes": [{"name": "terra_robotics", "primitives": [{"attributes": {"POSITION": 0, "NORMAL": 1, "TEXCOORD_0": 2}, "indices": 3, "material": 0}]}], "materials": [{"name": "terra_roboticsMaterial", "doubleSided": true, "pbrMetallicRoughness": {"baseColorFactor": [0.75, 0.65, 0.55, 1.0], "metallicFactor": 0.0, "roughnessFactor": 1.0}}], "buffers": [{"byteLength": 6320, "uri": "data:application/octet-stream;base64,"}], "bufferViews": [{"buffer": 0, "byteOffset": 0, "byteLength": 2064, "target": 34962}, {"buffer": 0, "byteOffset": 2064, "byteLength": 2064, "target": 34962}, {"buffer": 0, "byteOffset": 4128, "byteLength": 1376, "target": 34962}, {"buffer": 0, "byteOffset": 5504, "byteLength": 816, "target": 34963}], "accessors": [{"bufferView": 0, "componentType": 5126, "count": 172, "type": "VEC3", "min": [-0.55, -0.22999999999999998, -0.3], "max": [0.55, 0.475, 0.4949855824363647]}, {"bufferView": 1, "componentType": 5126, "count": 172, "type": "VEC3", "min": [-1.0, -1.0, -1.0], "max": [1.0, 1.0, 1.0]}, {"bufferView": 2, "componentType": 5126, "count": 172, "type": "VEC2", "min": [0.0, 0.0], "max": [1.0, 1.0]}, {"bufferView": 3, "componentType": 5123, "count": 408, "type": "SCALAR", "min": [0], "max": [171]}]}