{"asset": {"version": "2.0", "generator": "AI Script"}, "scene": 0, "scenes": [{"nodes": [0]}], "nodes": [{"mesh": 0, "name": "titan_dashboard"}], "meshes": [{"name": "titan_dashboard", "primitives": [{"attributes": {"POSITION": 0, "NORMAL": 1, "TEXCOORD_0": 2}, "indices": 3, "material": 0}]}], "materials": [{"name": "titan_dashboardMaterial", "doubleSided": true, "pbrMetallicRoughness": {"baseColorFactor": [0.55, 0.85, 0.9, 1.0], "metallicFactor": 0.0, "roughnessFactor": 1.0}}], "buffers": [{"byteLength": 9488, "uri": "data:application/octet-stream;base64,"}], "bufferViews": [{"buffer": 0, "byteOffset": 0, "byteLength": 3144, "target": 34962}, {"buffer": 0, "byteOffset": 3144, "byteLength": 3144, "target": 34962}, {"buffer": 0, "byteOffset": 6288, "byteLength": 2096, "target": 34962}, {"buffer": 0, "byteOffset": 8384, "byteLength": 1104, "target": 34963}], "accessors": [{"bufferView": 0, "componentType": 5126, "count": 262, "type": "VEC3", "min": [-0.55, -0.25, -0.10392304845413262], "max": [0.55, 0.25, 0.11755282581475769]}, {"bufferView": 1, "componentType": 5126, "count": 262, "type": "VEC3", "min": [-1.0, -1.0, -1.0], "max": [1.0, 1.0, 1.0]}, {"bufferView": 2, "componentType": 5126, "count": 262, "type": "VEC2", "min": [0.0, 0.0], "max": [1.0, 1.0]}, {"bufferView": 3, "componentType": 5123, "count": 552, "type": "SCALAR", "min": [0], "max": [261]}]}